<svg xmlns="http://www.w3.org/2000/svg" viewBox="0 0 1024 1024">
<metadata>
Created by potrace 1.16, written by Peter Selinger 2001-2019
</metadata>
<g transform="translate(0.000000,1024.000000) scale(0.100000,-0.100000)"
fill="white" stroke="none">
<path d="M4064 7133 c-155 -220 -471 -584 -631 -729 -268 -243 -482 -384 -683
-449 -677 -220 -1285 -649 -1585 -1119 -137 -214 -206 -472 -175 -653 67 -402
523 -517 1112 -282 252 100 581 292 756 441 18 15 36 28 41 28 4 0 11 -35 14
-77 13 -187 105 -291 275 -312 162 -20 353 38 537 162 210 141 436 415 570
691 91 187 119 291 120 436 0 133 -11 175 -63 232 -60 67 -102 83 -212 81 -55
0 -116 -7 -145 -17 -27 -8 -51 -14 -53 -11 -9 9 89 60 168 88 69 25 106 31
198 35 190 8 297 -31 341 -122 26 -53 26 -73 0 -172 -74 -285 -292 -693 -566
-1059 -74 -99 -302 -379 -387 -474 l-21 -24 25 6 c14 3 76 26 139 52 63 27
134 50 158 53 41 4 43 3 43 -21 0 -14 -8 -45 -19 -69 -28 -64 -245 -440 -358
-618 -33 -52 -68 -111 -78 -130 l-18 -35 23 20 c12 11 64 72 115 135 182 227
493 575 778 870 98 102 173 186 166 189 -6 2 -41 -8 -78 -22 -109 -43 -212
-70 -222 -60 -5 5 22 56 69 128 174 268 266 445 358 688 26 70 51 127 55 127
10 0 12 -5 74 -260 72 -295 141 -544 165 -590 10 -19 32 -48 50 -65 30 -29 36
-30 131 -33 55 -2 99 -7 97 -11 -2 -4 -41 -40 -87 -81 -141 -125 -185 -216
-130 -266 30 -27 204 -32 339 -9 182 30 630 165 901 270 228 89 457 223 571
335 35 34 69 66 76 72 10 9 11 -13 6 -113 -10 -196 21 -299 118 -392 70 -65
155 -92 293 -91 217 1 401 88 591 278 113 114 200 238 288 413 85 172 139 315
316 848 180 546 325 954 457 1290 64 163 93 251 77 230 -8 -11 -43 -67 -78
-125 -78 -131 -253 -374 -371 -517 -173 -207 -390 -418 -613 -592 -51 -41 -91
-75 -89 -78 3 -2 58 19 124 46 125 53 234 84 260 74 24 -9 11 -71 -68 -311
-150 -451 -314 -810 -461 -1005 -57 -77 -147 -165 -195 -194 -56 -32 -155 -43
-199 -20 -150 78 -124 282 93 727 180 370 214 471 192 583 -22 121 -148 167
-315 116 -99 -30 -239 -106 -338 -183 -77 -60 -139 -126 -120 -126 4 0 39 17
78 39 164 89 274 113 317 70 18 -18 21 -30 17 -88 -3 -41 -15 -92 -33 -136
-37 -92 -233 -486 -250 -504 -12 -13 -15 -12 -21 5 -34 100 -99 178 -192 233
-37 21 -159 78 -272 126 -113 48 -224 98 -247 111 -79 45 -94 122 -43 211 65
114 268 216 375 189 43 -11 59 -63 52 -171 -4 -49 -9 -102 -13 -117 -12 -50
29 -33 128 56 112 99 320 317 383 401 73 97 83 166 29 196 -40 21 -215 16
-350 -10 -577 -110 -969 -361 -1023 -655 -7 -38 -7 -74 -1 -108 23 -118 87
-174 357 -311 270 -138 308 -174 284 -264 -28 -102 -176 -210 -465 -337 -222
-98 -456 -169 -456 -138 0 14 261 292 354 378 48 43 82 80 77 82 -19 6 -425
-231 -576 -337 -32 -23 -64 -41 -72 -41 -17 0 -16 36 1 170 41 308 155 585
384 935 148 227 305 425 471 597 36 37 62 70 59 73 -3 3 -59 -16 -124 -41 -65
-26 -139 -52 -164 -59 -48 -13 -90 -5 -90 17 0 33 105 219 369 658 74 122 88
150 78 150 -2 0 -35 -37 -73 -82 -225 -268 -619 -708 -852 -952 -73 -76 -131
-140 -128 -143 2 -2 65 18 140 46 142 53 166 59 166 39 0 -6 -33 -68 -74 -137
-145 -247 -280 -538 -317 -684 -10 -42 -24 -65 -34 -56 -2 2 -22 94 -44 204
-83 410 -140 565 -236 654 -115 104 -246 145 -465 145 -224 0 -415 -40 -586
-124 -162 -80 -287 -187 -384 -329 -21 -32 -68 -81 -103 -109 -91 -73 -235
-227 -292 -311 -66 -101 -150 -265 -170 -334 l-17 -58 -149 -75 c-374 -187
-676 -263 -894 -225 -177 31 -247 129 -217 303 29 165 232 461 459 667 194
175 443 347 592 407 161 65 275 67 301 4 30 -72 -19 -228 -119 -385 -17 -27
-27 -51 -22 -53 11 -4 267 185 451 332 176 141 369 335 404 408 44 90 20 138
-86 172 -32 10 -58 20 -58 23 0 17 132 297 303 643 258 523 247 500 238 500
-4 0 -39 -44 -77 -97z m-4 -1788 c51 -26 63 -65 57 -179 -6 -119 -31 -198
-107 -344 -175 -333 -473 -594 -631 -552 -121 33 -146 171 -74 405 27 85 104
246 122 252 5 2 18 -17 27 -41 29 -77 105 -126 193 -126 39 0 50 14 24 32 -10
7 -29 30 -41 51 -19 32 -22 49 -19 115 3 65 10 90 38 145 84 166 306 296 411
242z"/>
</g>
</svg>